<svg width="65" height="58" viewBox="0 0 65 58" fill="none" xmlns="http://www.w3.org/2000/svg">
<path d="M61.2228 27.4551C61.9868 29.3727 62.1976 30.8023 61.814 32.5385L60.5166 38.4123L62.7507 45.3093C62.7507 45.3093 62.8889 50.6962 62.7523 54.659C62.71 55.8866 61.6644 56.8897 60.4179 56.8896H60.0133C58.4704 56.8896 57.8067 55.3934 57.8067 53.8728L56.8301 44.3958C56.8301 44.3958 48.2463 38.2218 49.4293 29.0315" stroke="white" stroke-width="2.05278" stroke-miterlimit="10" stroke-linecap="round" stroke-linejoin="round"/>
<path d="M32.4014 39.4073C36.7941 39.1755 45.2754 39.4073 49.5726 36.3721" stroke="white" stroke-width="2.05278" stroke-miterlimit="10" stroke-linecap="round" stroke-linejoin="round"/>
<path d="M53.1539 1.85547C59.7549 3.60127 62.4069 6.70074 63.0656 9.99233C64.2564 15.943 58.4681 21.058 52.4956 19.5948C49.6013 18.8858 47.1684 19.0946 47.1684 19.0946L26.0809 18.9374C24.1471 9.76114 18.6927 8.13483 18.6927 8.13483C17.7011 1.85547 13.7621 1.85547 13.7621 1.85547L12.9605 7.32066L11.2824 7.60312C10.3836 7.75434 9.54962 8.16227 8.88383 8.77621L7.33395 10.2053L2.61946 10.7051C1.74706 10.7976 1.2111 11.6919 1.55007 12.4896L2.55918 14.8637C2.89105 15.6444 3.59774 16.2095 4.44138 16.3686L11.8523 17.1962C11.8523 17.1962 10.7063 32.0664 14.9797 34.3252C24.2972 39.2501 20.03 52.9844 20.03 52.9844C19.0884 54.6064 19.8159 56.8893 21.7121 56.8893H21.7138C22.6236 56.8893 23.4597 56.3961 23.8896 55.6059L26.2959 49.4307L27.8741 39.1026C27.998 38.2919 27.8324 37.4732 27.4555 36.7424C26.7955 35.4625 26.0188 32.9469 27.2985 29.3724" stroke="white" stroke-width="2.05278" stroke-miterlimit="10" stroke-linecap="round" stroke-linejoin="round"/>
<path d="M12.5985 32.4062L7.61195 39.9223C7.24388 40.4528 7.03395 41.0856 7.01699 41.7504C6.96656 43.7328 6.72512 48.0088 10.4538 50.4354C11.433 51.0726 13.2778 51.1569 14.2515 50.5612C15.0737 50.058 15.7444 49.103 15.1383 47.2957" stroke="white" stroke-width="2.05278" stroke-miterlimit="10" stroke-linecap="round" stroke-linejoin="round"/>
<path d="M17.5251 38.2061L12.4727 41.6843" stroke="white" stroke-width="2.05278" stroke-miterlimit="10" stroke-linecap="round" stroke-linejoin="round"/>
<path d="M47.1855 41.6846C47.6816 43.4542 50.7118 45.0761 52.0558 45.9012L50.8299 53.9682C50.8299 54.7049 51.044 55.4149 51.5066 55.9245C52.7242 57.2656 54.2914 56.6759 54.2914 56.6759" stroke="white" stroke-width="2.05278" stroke-miterlimit="10" stroke-linecap="round" stroke-linejoin="round"/>
</svg>
