<svg width="59" height="65" viewBox="0 0 59 65" fill="none" xmlns="http://www.w3.org/2000/svg">
<path d="M42.0377 14.0313V11.5784C42.0377 8.14393 42.0377 6.42669 41.3643 5.11492C40.7722 3.96103 39.8271 3.0229 38.6648 2.435C37.3434 1.7666 35.6134 1.7666 32.1537 1.7666H27.2116C23.7519 1.7666 22.022 1.7666 20.7006 2.435C19.5382 3.0229 18.5932 3.96103 18.0009 5.11492C17.3276 6.42669 17.3276 8.14393 17.3276 11.5784V14.0313M23.5051 30.8952V46.2261M35.8602 30.8952V46.2261M1.88379 14.0313H57.4815M51.304 14.0313V48.3724C51.304 53.5242 51.304 56.0998 50.2939 58.0677C49.4056 59.7985 47.9882 61.2056 46.2446 62.0874C44.2622 63.0901 41.6677 63.0901 36.4779 63.0901H22.8874C17.6978 63.0901 15.1029 63.0901 13.1208 62.0874C11.3772 61.2056 9.95966 59.7985 9.07128 58.0677C8.06131 56.0998 8.06131 53.5242 8.06131 48.3724V14.0313" stroke="white" stroke-width="2" stroke-linecap="round" stroke-linejoin="round"/>
</svg>
