<svg width="56" height="60" viewBox="0 0 56 60" fill="none" xmlns="http://www.w3.org/2000/svg">
<path d="M55.4509 0.797744C55.1905 0.462804 54.8067 0.27014 54.4038 0.27014H53.0058C39.1907 0.264212 28.2784 0.261248 20.2442 2.33906C15.927 3.45651 12.5883 5.14306 10.0391 7.49357C7.28702 10.0308 5.41211 13.3535 4.30196 17.6574C3.56461 20.5147 3.21923 25.6751 4.67475 30.8089C5.21201 32.7059 6.05078 34.4962 7.16915 36.1413C3.83597 41.7878 0.955078 49.2247 0.955078 58.0724C0.955078 58.8905 1.56908 59.5544 2.32563 59.5544C3.08217 59.5544 3.69618 58.8905 3.69618 58.0724C3.69618 44.4229 11.1739 34.2976 15.6309 29.481C18.8298 26.0219 22.4453 23.1023 26.091 21.0393C29.4844 19.1186 32.7272 18.0605 35.2216 18.0605C35.9781 18.0605 36.5921 17.3965 36.5921 16.5784C36.5921 15.7603 35.9781 15.0964 35.2216 15.0964C32.2502 15.0964 28.6539 16.2435 24.8218 18.4162C20.935 20.6185 17.0864 23.7189 13.6957 27.3884C12.2649 28.9356 10.5434 30.9986 8.833 33.524C8.16965 32.3947 7.65433 31.1972 7.30072 29.9464C5.93017 25.109 6.43454 20.4495 6.94712 18.4606C10.8669 3.26978 25.7565 3.23124 52.7701 3.24013C49.5493 21.8782 43.5435 33.9419 34.9091 39.1083C26.8996 43.9012 18.9559 41.2869 15.9105 39.9382C15.2691 39.6537 14.6222 39.3039 13.9945 38.9008C13.3448 38.4829 12.5033 38.7141 12.1168 39.4166C11.7303 40.119 11.9441 41.029 12.5938 41.4469C13.3394 41.9271 14.1069 42.3421 14.8744 42.683C16.5793 43.4358 19.3259 44.4021 22.7276 44.7193C23.4787 44.7904 24.2215 44.823 24.9589 44.823C28.9856 44.823 32.7683 43.7767 36.2385 41.7018C40.6489 39.0638 44.4646 34.7689 47.5839 28.9445C51.2405 22.1123 53.9926 13.0512 55.7606 2.01301C55.8291 1.58322 55.7195 1.14158 55.4591 0.806636L55.4509 0.797744Z" fill="white"/>
</svg>
