<svg width="57" height="79" viewBox="0 0 57 79" fill="none" xmlns="http://www.w3.org/2000/svg">
<path d="M18.5637 77.1655H37.8685M20.4942 31.8804H35.938M28.2161 31.8804V54.5229M39.799 51.9809C48.9297 47.7411 55.2428 38.6445 55.2428 28.1067C55.2428 13.5174 43.1426 1.69043 28.2161 1.69043C13.2897 1.69043 1.18945 13.5174 1.18945 28.1067C1.18945 38.6445 7.5023 47.7411 16.6333 51.9809V54.5229C16.6333 58.0397 16.6333 59.7979 17.2211 61.1851C18.0048 63.0343 19.508 64.5038 21.4 65.2698C22.8193 65.8442 24.6181 65.8442 28.2161 65.8442C31.8141 65.8442 33.613 65.8442 35.0322 65.2698C36.9241 64.5038 38.4276 63.0343 39.2113 61.1851C39.799 59.7979 39.799 58.0397 39.799 54.5229V51.9809Z" stroke="white" stroke-width="2" stroke-linecap="round" stroke-linejoin="round"/>
</svg>
