<svg width="47" height="66" viewBox="0 0 47 66" fill="none" xmlns="http://www.w3.org/2000/svg">
<path d="M45.8479 41.9083C45.8479 55.5327 37.346 64.1095 23.8404 64.1095C10.3349 64.1095 1.83301 55.5327 1.83301 41.9083C1.83301 27.2878 17.6096 7.55023 22.4482 1.84111C22.6203 1.63827 22.834 1.47544 23.0744 1.36379C23.3149 1.25215 23.5765 1.19434 23.8412 1.19434C24.1059 1.19434 24.3675 1.25215 24.6079 1.36379C24.8484 1.47544 25.0621 1.63827 25.2342 1.84111C30.0713 7.55023 45.8479 27.2878 45.8479 41.9083Z" stroke="white" stroke-width="2" stroke-miterlimit="10"/>
<path d="M37.2898 43.1416C37.2898 46.0857 36.1305 48.9092 34.0669 50.9909C32.0033 53.0727 29.2045 54.2422 26.2861 54.2422" stroke="white" stroke-width="2" stroke-linecap="round" stroke-linejoin="round"/>
</svg>
