<svg width="111" height="114" viewBox="0 0 111 114" fill="none" xmlns="http://www.w3.org/2000/svg">
<path d="M74 28.5V24.7C74 19.3795 74 16.7192 72.9917 14.6871C72.1051 12.8995 70.6899 11.4462 68.9495 10.5355C66.9709 9.5 64.3805 9.5 59.2 9.5H51.8C46.6195 9.5 44.0293 9.5 42.0506 10.5355C40.3101 11.4462 38.895 12.8995 38.0082 14.6871C37 16.7192 37 19.3795 37 24.7V28.5M46.25 54.625V78.375M64.75 54.625V78.375M13.875 28.5H97.125M87.875 28.5V81.7C87.875 89.681 87.875 93.671 86.3626 96.7195C85.0325 99.4009 82.9101 101.581 80.2992 102.947C77.3309 104.5 73.4459 104.5 65.675 104.5H45.325C37.5543 104.5 33.6689 104.5 30.7009 102.947C28.0901 101.581 25.9675 99.4009 24.6373 96.7195C23.125 93.671 23.125 89.681 23.125 81.7V28.5" stroke="#206F95" stroke-width="3" stroke-linecap="round" stroke-linejoin="round"/>
</svg>
